<?xml version="1.0"?>
<svg xmlns="http://www.w3.org/2000/svg" xmlns:xlink="http://www.w3.org/1999/xlink" xmlns:svgjs="http://svgjs.com/svgjs" version="1.1" width="512" height="512" x="0" y="0" viewBox="0 0 512.002 512.002" style="enable-background:new 0 0 512 512" xml:space="preserve" class=""><g><g xmlns="http://www.w3.org/2000/svg"><path d="m329.919 294.714v-38.839c0-9.143-7.438-16.58-16.581-16.58h-144.594c-9.143 0-16.58 7.438-16.58 16.58v38.839c0 9.143 7.438 16.581 16.58 16.581h144.594c9.142 0 16.581-7.439 16.581-16.581zm-162.755 0v-38.839c0-.871.709-1.58 1.58-1.58h144.594c.872 0 1.581.709 1.581 1.58v38.839c0 .872-.709 1.581-1.581 1.581h-144.594c-.871 0-1.58-.709-1.58-1.581z" fill="#adab21" data-original="#000000" style="" class=""/><path d="m181.758 194.201h8.25c4.143 0 7.5-3.357 7.5-7.5s-3.357-7.5-7.5-7.5h-8.25c-4.143 0-7.5 3.357-7.5 7.5s3.357 7.5 7.5 7.5z" fill="#adab21" data-original="#000000" style="" class=""/><path d="m215.258 194.201h8.25c4.143 0 7.5-3.357 7.5-7.5s-3.357-7.5-7.5-7.5h-8.25c-4.143 0-7.5 3.357-7.5 7.5s3.357 7.5 7.5 7.5z" fill="#adab21" data-original="#000000" style="" class=""/><path d="m223.541 361.394c4.143 0 7.5-3.357 7.5-7.5s-3.357-7.5-7.5-7.5h-57.064l-34.188-42.918v-80.681h217.507v80.681l-34.189 42.918h-57.064c-4.143 0-7.5 3.357-7.5 7.5s3.357 7.5 7.5 7.5h60.425c2.47 0 4.764-1.11 6.277-3.024l37.816-47.472c1.119-1.413 1.735-3.183 1.735-4.983 0-10.972 0-89.164 0-99.826 0-1.796-.614-3.567-1.735-4.983-.004-.006-.009-.012-.014-.018l-37.789-47.438c-1.531-1.933-3.824-3.041-6.291-3.041h-155.85c-2.467 0-4.76 1.108-6.279 3.026l-37.785 47.433c-1.138 1.419-1.765 3.201-1.765 5.021v99.826c0 1.815.624 3.596 1.748 5l37.807 47.461c1.532 1.918 3.819 3.019 6.274 3.019h60.424zm92.064-195.786 33.606 42.187h-216.34l33.605-42.187z" fill="#adab21" data-original="#000000" style="" class=""/><path d="m314.063 495.741c5.206-46.775 6.313-56.715 11.682-104.956 9.006-1.614 17.141-6.414 22.964-13.725l37.801-47.451c5.343-6.706 8.285-15.121 8.285-23.695v-18.458c1.447.344 2.949.545 4.5.545h5.919c10.752 0 19.5-8.748 19.5-19.5v-25c0-10.752-8.748-19.5-19.5-19.5h-5.919c-1.551 0-3.053.201-4.5.545v-18.458c0-8.574-2.942-16.989-8.285-23.695-.018-.021-.034-.043-.052-.064l-37.747-47.384c-5.824-7.312-13.959-12.114-22.966-13.728-5.059-45.454-6.605-59.348-11.682-104.956-1.031-9.271-8.842-16.261-18.17-16.261h-109.703c-9.328 0-17.14 6.99-18.171 16.26-1.03 9.25-10.652 95.705-11.682 104.957-9.005 1.614-17.14 6.414-22.965 13.725l-37.8 47.451c-5.343 6.706-8.285 15.121-8.285 23.695v99.826c0 8.574 2.942 16.989 8.284 23.693l37.801 47.454c5.825 7.31 13.96 12.11 22.965 13.724 1.458 13.102 10.215 91.775 11.682 104.955 1.031 9.271 8.843 16.262 18.171 16.262h37.351c4.143 0 7.5-3.357 7.5-7.5s-3.357-7.5-7.5-7.5h-37.351c-1.675 0-3.077-1.255-3.263-2.921l-2.498-22.439h121.224l-2.498 22.44c-.186 1.665-1.588 2.92-3.263 2.92h-37.352c-4.143 0-7.5 3.357-7.5 7.5s3.357 7.5 7.5 7.5h37.352c9.329 0 17.14-6.991 18.171-16.261zm-142.565-104.347h139.087l-2.885 25.915h-133.317zm227.797-152.393h5.919c2.439 0 4.5 2.061 4.5 4.5v25c0 2.439-2.061 4.5-4.5 4.5h-5.919c-2.439 0-4.5-2.061-4.5-4.5v-25c0-2.439 2.06-4.5 4.5-4.5zm-93.264-159.308h-129.979l2.709-24.333h124.562zm-131.648 15h133.317l2.885 25.915h-139.087zm8.545-76.774c.185-1.664 1.588-2.919 3.263-2.919h109.702c1.675 0 3.077 1.255 3.263 2.92l2.498 22.44h-121.224zm-37.823 349.796-37.801-47.454c-3.235-4.06-5.017-9.154-5.017-14.347v-99.826c0-5.191 1.782-10.288 5.018-14.35l37.8-47.45c4.395-5.517 10.96-8.68 18.012-8.68h155.849c7.054 0 13.618 3.164 18.012 8.681l37.801 47.451c.015.019.029.037.044.056 3.207 4.052 4.973 9.124 4.973 14.292v99.826c0 5.191-1.782 10.288-5.018 14.35l-37.801 47.451c-4.393 5.516-10.957 8.679-18.011 8.679h-155.849c-7.052 0-13.617-3.164-18.012-8.679zm33.656 88.927-2.709-24.333h129.979l-2.709 24.333z" fill="#adab21" data-original="#000000" style="" class=""/></g></g></svg>
